<svg width="731" height="254" viewBox="0 0 731 254" fill="none" xmlns="http://www.w3.org/2000/svg">
    <mask id="path-2-inside-1" fill="white">
        <path d="M690.621 182.56H658.269V182.944C658.269 187.936 659.613 191.776 662.301 194.464C665.053 197.152 668.766 198.496 673.438 198.496C675.87 198.496 678.014 198.304 679.87 197.92C681.79 197.536 683.869 196.896 686.109 196L687.837 202.24C685.981 203.072 683.774 203.744 681.214 204.256C678.718 204.768 676.029 205.024 673.149 205.024C669.885 205.024 666.813 204.576 663.933 203.68C661.117 202.784 658.621 201.408 656.445 199.552C654.269 197.632 652.541 195.2 651.261 192.256C650.045 189.312 649.438 185.792 649.438 181.696C649.438 178.176 649.95 174.976 650.974 172.096C652.062 169.216 653.565 166.784 655.485 164.8C657.405 162.752 659.709 161.184 662.397 160.096C665.149 158.944 668.221 158.368 671.613 158.368C674.493 158.368 677.085 158.848 679.389 159.808C681.757 160.768 683.773 162.112 685.438 163.84C687.101 165.568 688.381 167.648 689.277 170.08C690.173 172.512 690.621 175.2 690.621 178.144V182.56ZM681.885 176.512C681.885 174.848 681.662 173.312 681.214 171.904C680.83 170.432 680.189 169.152 679.293 168.064C678.461 166.976 677.373 166.112 676.029 165.472C674.685 164.832 673.053 164.512 671.133 164.512C667.613 164.512 664.733 165.632 662.493 167.872C660.317 170.112 658.973 173.056 658.461 176.704L681.885 176.512Z"/>
        <path d="M630.48 204.16V136H638.737V204.16H630.48Z"/>
        <path d="M609.035 204.16V165.376H589.931V204.16H581.579V165.376H574.955V159.04H581.579V153.952C581.579 151.264 582.027 148.8 582.923 146.56C583.819 144.256 585.067 142.304 586.667 140.704C588.331 139.04 590.315 137.76 592.619 136.864C594.987 135.968 597.611 135.52 600.491 135.52C602.283 135.52 604.299 135.776 606.539 136.288C608.843 136.8 610.763 137.44 612.299 138.208L610.571 144.064C609.291 143.552 607.915 143.168 606.443 142.912C604.971 142.592 603.595 142.432 602.315 142.432C598.283 142.432 595.211 143.36 593.099 145.216C590.987 147.008 589.931 150.208 589.931 154.816V159.04H617.483V204.16H609.035Z"/>
        <path d="M569.379 181.12C569.379 184.896 568.803 188.288 567.651 191.296C566.499 194.24 564.899 196.736 562.851 198.784C560.867 200.832 558.531 202.4 555.843 203.488C553.155 204.512 550.243 205.024 547.107 205.024C543.971 205.024 541.059 204.544 538.371 203.584C535.747 202.56 533.443 201.088 531.459 199.168C529.539 197.184 528.003 194.784 526.851 191.968C525.763 189.088 525.219 185.792 525.219 182.08C525.219 178.304 525.795 174.944 526.947 172C528.099 169.056 529.667 166.592 531.651 164.608C533.699 162.56 536.067 161.024 538.755 160C541.443 158.912 544.355 158.368 547.491 158.368C550.627 158.368 553.507 158.848 556.131 159.808C558.819 160.768 561.123 162.208 563.043 164.128C565.027 166.048 566.563 168.448 567.651 171.328C568.803 174.144 569.379 177.408 569.379 181.12ZM560.547 181.6C560.547 178.592 560.163 176.032 559.395 173.92C558.627 171.808 557.603 170.08 556.323 168.736C555.107 167.392 553.699 166.432 552.099 165.856C550.499 165.216 548.867 164.896 547.203 164.896C545.539 164.896 543.907 165.152 542.307 165.664C540.707 166.176 539.299 167.072 538.083 168.352C536.867 169.632 535.875 171.36 535.107 173.536C534.403 175.648 534.051 178.336 534.051 181.6C534.051 184.608 534.435 187.2 535.203 189.376C535.971 191.488 536.963 193.216 538.179 194.56C539.459 195.904 540.899 196.896 542.499 197.536C544.099 198.176 545.731 198.496 547.395 198.496C549.059 198.496 550.691 198.24 552.291 197.728C553.891 197.152 555.299 196.224 556.515 194.944C557.731 193.6 558.691 191.872 559.395 189.76C560.163 187.584 560.547 184.864 560.547 181.6Z"/>
        <path d="M494.53 204.16V159.04H500.866L502.306 168.064C503.394 165.184 505.186 162.848 507.682 161.056C510.178 159.264 513.058 158.368 516.322 158.368C517.986 158.368 519.362 158.496 520.45 158.752C521.538 159.008 522.53 159.328 523.426 159.712L521.794 167.104C521.026 166.72 520.162 166.4 519.202 166.144C518.306 165.888 517.218 165.76 515.938 165.76C514.082 165.76 512.354 166.08 510.754 166.72C509.218 167.36 507.842 168.32 506.626 169.6C505.474 170.88 504.546 172.48 503.842 174.4C503.202 176.256 502.882 178.4 502.882 180.832V204.16H494.53Z"/>
        <path d="M462.441 205.024C460.393 205.024 458.41 204.736 456.49 204.16C454.634 203.584 453.034 202.816 451.69 201.856V226.24H443.338V158.368H450.346L451.594 164.224C453.322 162.624 455.274 161.248 457.45 160.096C459.626 158.944 462.186 158.368 465.13 158.368C471.146 158.368 475.882 160.288 479.338 164.128C482.794 167.968 484.522 173.472 484.522 180.64C484.522 184.864 483.882 188.512 482.602 191.584C481.386 194.656 479.722 197.184 477.61 199.168C475.562 201.152 473.194 202.624 470.506 203.584C467.882 204.544 465.193 205.024 462.441 205.024ZM463.306 165.28C460.618 165.28 458.282 165.952 456.298 167.296C454.314 168.576 452.778 169.888 451.69 171.232V195.328C453.162 196.416 454.73 197.216 456.394 197.728C458.058 198.24 459.721 198.496 461.385 198.496C463.113 198.496 464.842 198.208 466.57 197.632C468.298 196.992 469.834 195.968 471.178 194.56C472.522 193.152 473.609 191.328 474.441 189.088C475.273 186.848 475.69 184.096 475.69 180.832C475.69 176.032 474.666 172.256 472.618 169.504C470.634 166.688 467.53 165.28 463.306 165.28Z"/>
        <path d="M386.53 204.16V159.04H392.866L394.306 168.064C395.394 165.184 397.186 162.848 399.682 161.056C402.178 159.264 405.058 158.368 408.322 158.368C409.986 158.368 411.362 158.496 412.45 158.752C413.538 159.008 414.53 159.328 415.426 159.712L413.794 167.104C413.026 166.72 412.162 166.4 411.202 166.144C410.306 165.888 409.218 165.76 407.938 165.76C406.082 165.76 404.354 166.08 402.754 166.72C401.218 167.36 399.842 168.32 398.626 169.6C397.474 170.88 396.546 172.48 395.842 174.4C395.202 176.256 394.882 178.4 394.882 180.832V204.16H386.53Z"/>
        <path d="M376.747 182.56H344.395V182.944C344.395 187.936 345.739 191.776 348.427 194.464C351.179 197.152 354.891 198.496 359.562 198.496C361.995 198.496 364.139 198.304 365.995 197.92C367.915 197.536 369.995 196.896 372.235 196L373.963 202.24C372.107 203.072 369.899 203.744 367.339 204.256C364.843 204.768 362.155 205.024 359.275 205.024C356.011 205.024 352.939 204.576 350.059 203.68C347.243 202.784 344.747 201.408 342.571 199.552C340.395 197.632 338.667 195.2 337.387 192.256C336.171 189.312 335.562 185.792 335.562 181.696C335.562 178.176 336.075 174.976 337.099 172.096C338.187 169.216 339.691 166.784 341.611 164.8C343.531 162.752 345.835 161.184 348.523 160.096C351.275 158.944 354.347 158.368 357.739 158.368C360.619 158.368 363.211 158.848 365.515 159.808C367.883 160.768 369.899 162.112 371.563 163.84C373.227 165.568 374.507 167.648 375.403 170.08C376.299 172.512 376.747 175.2 376.747 178.144V182.56ZM368.01 176.512C368.01 174.848 367.787 173.312 367.339 171.904C366.955 170.432 366.315 169.152 365.419 168.064C364.587 166.976 363.499 166.112 362.155 165.472C360.811 164.832 359.179 164.512 357.259 164.512C353.739 164.512 350.858 165.632 348.618 167.872C346.442 170.112 345.099 173.056 344.587 176.704L368.01 176.512Z"/>
        <path d="M306.066 205.024C304.018 205.024 302.035 204.736 300.115 204.16C298.259 203.584 296.659 202.816 295.315 201.856V226.24H286.963V158.368H293.971L295.219 164.224C296.947 162.624 298.899 161.248 301.075 160.096C303.251 158.944 305.811 158.368 308.755 158.368C314.771 158.368 319.507 160.288 322.963 164.128C326.419 167.968 328.147 173.472 328.147 180.64C328.147 184.864 327.507 188.512 326.227 191.584C325.011 194.656 323.347 197.184 321.235 199.168C319.187 201.152 316.819 202.624 314.131 203.584C311.507 204.544 308.818 205.024 306.066 205.024ZM306.931 165.28C304.243 165.28 301.907 165.952 299.923 167.296C297.939 168.576 296.403 169.888 295.315 171.232V195.328C296.787 196.416 298.355 197.216 300.019 197.728C301.683 198.24 303.346 198.496 305.01 198.496C306.738 198.496 308.467 198.208 310.195 197.632C311.923 196.992 313.459 195.968 314.803 194.56C316.147 193.152 317.234 191.328 318.066 189.088C318.898 186.848 319.315 184.096 319.315 180.832C319.315 176.032 318.291 172.256 316.243 169.504C314.259 166.688 311.155 165.28 306.931 165.28Z"/>
        <path d="M277.066 181.12C277.066 184.896 276.49 188.288 275.338 191.296C274.186 194.24 272.586 196.736 270.538 198.784C268.554 200.832 266.218 202.4 263.53 203.488C260.842 204.512 257.93 205.024 254.794 205.024C251.658 205.024 248.746 204.544 246.058 203.584C243.434 202.56 241.13 201.088 239.146 199.168C237.226 197.184 235.69 194.784 234.538 191.968C233.45 189.088 232.906 185.792 232.906 182.08C232.906 178.304 233.482 174.944 234.634 172C235.786 169.056 237.354 166.592 239.338 164.608C241.386 162.56 243.754 161.024 246.442 160C249.13 158.912 252.042 158.368 255.178 158.368C258.314 158.368 261.194 158.848 263.818 159.808C266.506 160.768 268.81 162.208 270.73 164.128C272.714 166.048 274.25 168.448 275.338 171.328C276.49 174.144 277.066 177.408 277.066 181.12ZM268.234 181.6C268.234 178.592 267.85 176.032 267.082 173.92C266.314 171.808 265.29 170.08 264.01 168.736C262.794 167.392 261.386 166.432 259.786 165.856C258.186 165.216 256.554 164.896 254.89 164.896C253.226 164.896 251.594 165.152 249.994 165.664C248.394 166.176 246.986 167.072 245.77 168.352C244.554 169.632 243.562 171.36 242.794 173.536C242.09 175.648 241.738 178.336 241.738 181.6C241.738 184.608 242.122 187.2 242.89 189.376C243.658 191.488 244.65 193.216 245.866 194.56C247.146 195.904 248.586 196.896 250.186 197.536C251.786 198.176 253.418 198.496 255.082 198.496C256.746 198.496 258.378 198.24 259.978 197.728C261.578 197.152 262.986 196.224 264.202 194.944C265.418 193.6 266.378 191.872 267.082 189.76C267.85 187.584 268.234 184.864 268.234 181.6Z"/>
        <path d="M213.949 204.16V136H222.205V204.16H213.949Z"/>
        <path d="M203.59 182.56H171.238V182.944C171.238 187.936 172.582 191.776 175.27 194.464C178.022 197.152 181.734 198.496 186.406 198.496C188.838 198.496 190.982 198.304 192.838 197.92C194.758 197.536 196.838 196.896 199.078 196L200.806 202.24C198.95 203.072 196.742 203.744 194.182 204.256C191.686 204.768 188.998 205.024 186.118 205.024C182.854 205.024 179.782 204.576 176.902 203.68C174.086 202.784 171.59 201.408 169.414 199.552C167.238 197.632 165.51 195.2 164.23 192.256C163.014 189.312 162.406 185.792 162.406 181.696C162.406 178.176 162.918 174.976 163.942 172.096C165.03 169.216 166.534 166.784 168.454 164.8C170.374 162.752 172.678 161.184 175.366 160.096C178.118 158.944 181.19 158.368 184.582 158.368C187.462 158.368 190.054 158.848 192.358 159.808C194.726 160.768 196.742 162.112 198.406 163.84C200.07 165.568 201.35 167.648 202.246 170.08C203.142 172.512 203.59 175.2 203.59 178.144V182.56ZM194.854 176.512C194.854 174.848 194.63 173.312 194.182 171.904C193.798 170.432 193.158 169.152 192.262 168.064C191.43 166.976 190.342 166.112 188.998 165.472C187.654 164.832 186.022 164.512 184.102 164.512C180.582 164.512 177.702 165.632 175.462 167.872C173.286 170.112 171.942 173.056 171.43 176.704L194.854 176.512Z"/>
        <path d="M149.434 159.04H158.458L141.658 204.16H133.402L116.41 159.04H125.53L135.706 190.048L137.434 197.152H137.818L139.45 190.144L149.434 159.04Z"/>
        <path d="M112.653 182.56H80.3008V182.944C80.3008 187.936 81.6447 191.776 84.3327 194.464C87.0847 197.152 90.7968 198.496 95.4688 198.496C97.9008 198.496 100.045 198.304 101.901 197.92C103.821 197.536 105.901 196.896 108.141 196L109.869 202.24C108.013 203.072 105.805 203.744 103.245 204.256C100.749 204.768 98.0607 205.024 95.1807 205.024C91.9167 205.024 88.8447 204.576 85.9647 203.68C83.1487 202.784 80.6528 201.408 78.4767 199.552C76.3007 197.632 74.5728 195.2 73.2928 192.256C72.0768 189.312 71.4688 185.792 71.4688 181.696C71.4688 178.176 71.9807 174.976 73.0047 172.096C74.0927 169.216 75.5968 166.784 77.5168 164.8C79.4367 162.752 81.7407 161.184 84.4287 160.096C87.1807 158.944 90.2527 158.368 93.6447 158.368C96.5247 158.368 99.1167 158.848 101.421 159.808C103.789 160.768 105.805 162.112 107.469 163.84C109.133 165.568 110.413 167.648 111.309 170.08C112.205 172.512 112.653 175.2 112.653 178.144V182.56ZM103.917 176.512C103.917 174.848 103.693 173.312 103.245 171.904C102.861 170.432 102.221 169.152 101.325 168.064C100.493 166.976 99.4047 166.112 98.0607 165.472C96.7167 164.832 95.0847 164.512 93.1647 164.512C89.6447 164.512 86.7647 165.632 84.5247 167.872C82.3487 170.112 81.0047 173.056 80.4927 176.704L103.917 176.512Z"/>
        <path d="M52.736 136H61.184V204.16H54.08L53.024 199.168H52.736C50.752 201.216 48.736 202.72 46.688 203.68C44.704 204.576 42.176 205.024 39.104 205.024C36.672 205.024 34.304 204.544 32 203.584C29.76 202.624 27.744 201.184 25.952 199.264C24.16 197.344 22.72 194.944 21.632 192.064C20.544 189.12 20 185.664 20 181.696C20 178.176 20.448 174.976 21.344 172.096C22.304 169.216 23.648 166.752 25.376 164.704C27.104 162.656 29.216 161.088 31.712 160C34.208 158.912 37.056 158.368 40.256 158.368C42.624 158.368 44.864 158.752 46.976 159.52C49.152 160.224 51.072 161.312 52.736 162.784V136ZM52.736 169.888C49.728 166.496 46.176 164.8 42.08 164.8C40.352 164.8 38.656 165.12 36.992 165.76C35.392 166.336 33.952 167.296 32.672 168.64C31.456 169.984 30.464 171.712 29.696 173.824C28.928 175.936 28.544 178.464 28.544 181.408C28.544 184.48 28.896 187.104 29.6 189.28C30.304 191.392 31.232 193.152 32.384 194.56C33.6 195.904 34.944 196.896 36.416 197.536C37.952 198.176 39.488 198.496 41.024 198.496C45.824 198.496 49.728 196.416 52.736 192.256V169.888Z"/>
        <path d="M658.44 67.488C656.328 66.464 654.408 65.76 652.68 65.376C650.952 64.992 649.224 64.8 647.496 64.8C644.424 64.8 642.152 65.376 640.68 66.528C639.208 67.616 638.472 69.088 638.472 70.944C638.472 72.288 638.984 73.472 640.008 74.496C641.032 75.456 643.176 76.416 646.44 77.376L649.32 78.24C653.608 79.52 656.84 81.184 659.016 83.232C661.256 85.216 662.376 87.936 662.376 91.392C662.376 95.488 660.84 98.784 657.768 101.28C654.76 103.776 650.536 105.024 645.096 105.024C642.216 105.024 639.433 104.768 636.745 104.256C634.121 103.744 631.848 103.04 629.928 102.144L631.944 95.52C633.8 96.416 635.816 97.152 637.992 97.728C640.168 98.24 642.376 98.496 644.616 98.496C647.496 98.496 649.768 97.984 651.432 96.96C653.16 95.936 654.024 94.24 654.024 91.872C654.024 89.824 653.288 88.384 651.816 87.552C650.344 86.656 648.232 85.792 645.48 84.96L642.504 84C638.344 82.656 635.241 80.992 633.193 79.008C631.209 76.96 630.216 74.336 630.216 71.136C630.216 69.216 630.632 67.456 631.464 65.856C632.296 64.256 633.416 62.912 634.824 61.824C636.296 60.736 638.024 59.904 640.008 59.328C641.992 58.688 644.168 58.368 646.536 58.368C648.776 58.368 651.08 58.592 653.448 59.04C655.88 59.424 658.184 60.096 660.36 61.056L658.44 67.488Z"/>
        <path d="M615.621 42.24H623.589L622.053 63.072H617.061L615.621 42.24Z"/>
        <path d="M600.559 59.04H609.583L592.783 104.16H584.527L567.535 59.04H576.655L586.831 90.048L588.559 97.152H588.943L590.575 90.144L600.559 59.04Z"/>
        <path d="M563.472 81.12C563.472 84.896 562.897 88.288 561.745 91.296C560.593 94.24 558.992 96.736 556.944 98.784C554.96 100.832 552.624 102.4 549.936 103.488C547.248 104.512 544.337 105.024 541.201 105.024C538.064 105.024 535.152 104.544 532.464 103.584C529.84 102.56 527.537 101.088 525.553 99.168C523.633 97.184 522.097 94.784 520.945 91.968C519.857 89.088 519.312 85.792 519.312 82.08C519.312 78.304 519.889 74.944 521.041 72C522.193 69.056 523.761 66.592 525.745 64.608C527.793 62.56 530.161 61.024 532.849 60C535.537 58.912 538.448 58.368 541.584 58.368C544.72 58.368 547.6 58.848 550.224 59.808C552.912 60.768 555.216 62.208 557.136 64.128C559.12 66.048 560.657 68.448 561.745 71.328C562.897 74.144 563.472 77.408 563.472 81.12ZM554.641 81.6C554.641 78.592 554.256 76.032 553.488 73.92C552.72 71.808 551.697 70.08 550.417 68.736C549.201 67.392 547.793 66.432 546.193 65.856C544.593 65.216 542.961 64.896 541.297 64.896C539.633 64.896 538.001 65.152 536.401 65.664C534.801 66.176 533.392 67.072 532.176 68.352C530.96 69.632 529.969 71.36 529.201 73.536C528.497 75.648 528.145 78.336 528.145 81.6C528.145 84.608 528.529 87.2 529.297 89.376C530.065 91.488 531.056 93.216 532.272 94.56C533.552 95.904 534.992 96.896 536.592 97.536C538.192 98.176 539.824 98.496 541.488 98.496C543.152 98.496 544.784 98.24 546.384 97.728C547.984 97.152 549.392 96.224 550.608 94.944C551.824 93.6 552.784 91.872 553.488 89.76C554.256 87.584 554.641 84.864 554.641 81.6Z"/>
        <path d="M479.263 104.16H470.815V59.04H477.439L478.687 65.28C480.927 63.04 483.263 61.344 485.695 60.192C488.191 58.976 491.039 58.368 494.239 58.368C498.847 58.368 502.463 59.68 505.087 62.304C507.711 64.864 509.023 68.448 509.023 73.056V104.16H500.575V74.304C500.575 71.552 499.839 69.376 498.367 67.776C496.959 66.112 494.783 65.28 491.839 65.28C487.359 65.28 483.167 67.296 479.263 71.328V104.16Z"/>
        <path d="M449.305 59.04H457.753V104.16H451.129L449.977 98.496H449.593C447.929 100.352 445.849 101.92 443.353 103.2C440.921 104.416 438.073 105.024 434.809 105.024C430.137 105.024 426.329 103.712 423.385 101.088C420.505 98.4 419.065 94.368 419.065 88.992V59.04H427.513V87.936C427.513 89.856 427.737 91.488 428.185 92.832C428.697 94.176 429.337 95.264 430.105 96.096C430.937 96.864 431.897 97.44 432.985 97.824C434.073 98.144 435.257 98.304 436.537 98.304C439.097 98.304 441.401 97.76 443.449 96.672C445.497 95.584 447.449 94.08 449.305 92.16V59.04Z"/>
        <path d="M366.456 74.016C366.456 71.52 366.904 69.312 367.8 67.392C368.696 65.408 369.944 63.744 371.544 62.4C373.208 61.056 375.16 60.064 377.4 59.424C379.64 58.72 382.072 58.368 384.696 58.368C385.656 58.368 386.584 58.432 387.48 58.56C388.376 58.688 389.272 58.848 390.168 59.04H409.656V65.28H406.68L399 64.224C400.216 65.504 401.144 66.976 401.784 68.64C402.488 70.304 402.84 72.064 402.84 73.92C402.84 76.416 402.392 78.656 401.496 80.64C400.6 82.56 399.352 84.192 397.752 85.536C396.152 86.88 394.232 87.904 391.992 88.608C389.752 89.248 387.32 89.568 384.696 89.568C382.712 89.568 380.984 89.44 379.512 89.184C378.04 89.696 377.016 90.368 376.44 91.2C375.864 91.968 375.576 92.8 375.576 93.696C375.576 95.168 376.056 96.16 377.016 96.672C378.04 97.184 379.384 97.44 381.048 97.44H392.952C397.944 97.44 401.752 98.592 404.376 100.896C407.064 103.136 408.408 106.208 408.408 110.112C408.408 112.608 407.864 114.848 406.776 116.832C405.688 118.816 404.12 120.512 402.072 121.92C400.088 123.328 397.656 124.384 394.776 125.088C391.896 125.856 388.664 126.24 385.08 126.24C378.552 126.24 373.336 125.056 369.432 122.688C365.592 120.384 363.672 116.96 363.672 112.416C363.672 110.048 364.408 108.064 365.88 106.464C367.416 104.864 369.4 103.648 371.832 102.816C370.552 101.92 369.592 100.992 368.952 100.032C368.312 99.008 367.992 97.664 367.992 96C367.992 94.016 368.568 92.32 369.72 90.912C370.936 89.504 372.568 88.384 374.616 87.552C372.056 86.4 370.04 84.736 368.568 82.56C367.16 80.32 366.456 77.472 366.456 74.016ZM376.728 104.16C373.464 105.632 371.832 107.936 371.832 111.072C371.832 116.704 376.376 119.52 385.464 119.52C388.152 119.52 390.424 119.264 392.28 118.752C394.136 118.24 395.64 117.568 396.792 116.736C397.944 115.904 398.776 114.976 399.288 113.952C399.864 112.928 400.152 111.872 400.152 110.784C400.152 108.096 399.224 106.304 397.368 105.408C395.576 104.576 393.304 104.16 390.552 104.16H376.728ZM394.296 74.208C394.296 70.816 393.4 68.32 391.608 66.72C389.88 65.12 387.576 64.32 384.696 64.32C381.816 64.32 379.48 65.12 377.688 66.72C375.96 68.32 375.096 70.688 375.096 73.824C375.096 77.152 375.96 79.616 377.688 81.216C379.48 82.752 381.816 83.52 384.696 83.52C387.576 83.52 389.88 82.752 391.608 81.216C393.4 79.68 394.296 77.344 394.296 74.208Z"/>
        <path d="M346.555 59.04H355.003V104.16H348.379L347.227 98.496H346.843C345.179 100.352 343.099 101.92 340.603 103.2C338.171 104.416 335.323 105.024 332.059 105.024C327.387 105.024 323.579 103.712 320.635 101.088C317.755 98.4 316.315 94.368 316.315 88.992V59.04H324.763V87.936C324.763 89.856 324.987 91.488 325.435 92.832C325.947 94.176 326.587 95.264 327.355 96.096C328.187 96.864 329.147 97.44 330.235 97.824C331.323 98.144 332.507 98.304 333.787 98.304C336.347 98.304 338.651 97.76 340.699 96.672C342.747 95.584 344.699 94.08 346.555 92.16V59.04Z"/>
        <path d="M273.015 104.16H264.567V36H273.015V64.8C275.127 62.944 277.463 61.408 280.023 60.192C282.583 58.976 285.4 58.368 288.472 58.368C290.968 58.368 293.144 58.752 295 59.52C296.856 60.224 298.36 61.248 299.512 62.592C300.728 63.872 301.624 65.408 302.2 67.2C302.84 68.992 303.16 70.944 303.16 73.056V104.16H294.712V75.168C294.712 71.712 294.008 69.216 292.6 67.68C291.192 66.08 289.048 65.28 286.168 65.28C283.992 65.28 281.784 65.824 279.544 66.912C277.368 68 275.191 69.536 273.015 71.52V104.16Z"/>
        <path d="M237.461 97.728C240.661 97.728 243.285 97.472 245.333 96.96C247.445 96.448 249.525 95.712 251.573 94.752L253.589 101.856C251.349 102.944 248.885 103.744 246.197 104.256C243.573 104.768 240.341 105.024 236.501 105.024C232.533 105.024 228.789 104.352 225.269 103.008C221.749 101.664 218.677 99.68 216.053 97.056C213.493 94.432 211.445 91.2 209.909 87.36C208.437 83.456 207.701 78.976 207.701 73.92C207.701 68.992 208.437 64.608 209.909 60.768C211.381 56.864 213.397 53.6 215.957 50.976C218.581 48.288 221.685 46.272 225.269 44.928C228.853 43.52 232.757 42.816 236.981 42.816C240.949 42.816 244.213 43.136 246.773 43.776C249.333 44.416 251.701 45.28 253.877 46.368L251.765 53.28C250.549 52.768 249.397 52.32 248.309 51.936C247.285 51.488 246.229 51.136 245.141 50.88C244.117 50.624 243.029 50.432 241.877 50.304C240.789 50.176 239.541 50.112 238.133 50.112C235.317 50.112 232.629 50.56 230.069 51.456C227.573 52.288 225.365 53.664 223.445 55.584C221.589 57.504 220.085 60 218.933 63.072C217.845 66.08 217.301 69.728 217.301 74.016C217.301 78.368 217.845 82.048 218.933 85.056C220.021 88.064 221.461 90.496 223.253 92.352C225.109 94.208 227.253 95.584 229.685 96.48C232.117 97.312 234.709 97.728 237.461 97.728Z"/>
        <path d="M145.794 104.16H137.346V59.04H143.97L145.218 65.28C147.458 63.04 149.795 61.344 152.227 60.192C154.723 58.976 157.57 58.368 160.77 58.368C165.378 58.368 168.994 59.68 171.618 62.304C174.243 64.864 175.555 68.448 175.555 73.056V104.16H167.106V74.304C167.106 71.552 166.37 69.376 164.898 67.776C163.49 66.112 161.314 65.28 158.37 65.28C153.89 65.28 149.698 67.296 145.794 71.328V104.16Z"/>
        <path d="M90.8577 63.072C92.3937 62.304 93.8337 61.632 95.1777 61.056C96.5217 60.416 97.8657 59.904 99.2097 59.52C100.554 59.136 101.93 58.848 103.338 58.656C104.746 58.464 106.282 58.368 107.946 58.368C110.442 58.368 112.714 58.656 114.762 59.232C116.874 59.744 118.666 60.64 120.138 61.92C121.674 63.2 122.858 64.896 123.69 67.008C124.522 69.056 124.938 71.648 124.938 74.784V104.16H117.93L116.874 99.168H116.682C114.698 101.28 112.522 102.784 110.154 103.68C107.786 104.576 105.162 105.024 102.282 105.024C100.106 105.024 98.0897 104.736 96.2337 104.16C94.4417 103.52 92.8737 102.656 91.5297 101.568C90.1857 100.416 89.1297 99.04 88.3617 97.44C87.6577 95.84 87.3057 94.048 87.3057 92.064C87.3057 87.328 89.1617 83.744 92.8737 81.312C96.6497 78.816 101.61 77.568 107.754 77.568H116.394V73.728C116.394 70.464 115.562 68.256 113.898 67.104C112.234 65.888 109.994 65.28 107.178 65.28C105.514 65.28 103.594 65.568 101.418 66.144C99.3057 66.656 96.8737 67.68 94.1217 69.216L90.8577 63.072ZM116.49 83.328L109.386 83.52C104.586 83.648 101.162 84.512 99.1137 86.112C97.1297 87.648 96.1377 89.536 96.1377 91.776C96.1377 93.12 96.3617 94.272 96.8097 95.232C97.2577 96.128 97.8337 96.832 98.5378 97.344C99.3057 97.856 100.17 98.24 101.13 98.496C102.154 98.688 103.21 98.784 104.298 98.784C106.41 98.784 108.554 98.304 110.73 97.344C112.906 96.32 114.826 94.72 116.49 92.544V83.328Z"/>
        <path d="M74.6218 59.04H83.6458L66.8458 104.16H58.5898L41.5977 59.04H50.7178L60.8938 90.048L62.6217 97.152H63.0058L64.6378 90.144L74.6218 59.04Z"/>
        <path d="M32.768 43.68V104.16H23.936V43.68H32.768Z"/>
    </mask>
    <path d="M690.621 182.56H658.269V182.944C658.269 187.936 659.613 191.776 662.301 194.464C665.053 197.152 668.766 198.496 673.438 198.496C675.87 198.496 678.014 198.304 679.87 197.92C681.79 197.536 683.869 196.896 686.109 196L687.837 202.24C685.981 203.072 683.774 203.744 681.214 204.256C678.718 204.768 676.029 205.024 673.149 205.024C669.885 205.024 666.813 204.576 663.933 203.68C661.117 202.784 658.621 201.408 656.445 199.552C654.269 197.632 652.541 195.2 651.261 192.256C650.045 189.312 649.438 185.792 649.438 181.696C649.438 178.176 649.95 174.976 650.974 172.096C652.062 169.216 653.565 166.784 655.485 164.8C657.405 162.752 659.709 161.184 662.397 160.096C665.149 158.944 668.221 158.368 671.613 158.368C674.493 158.368 677.085 158.848 679.389 159.808C681.757 160.768 683.773 162.112 685.438 163.84C687.101 165.568 688.381 167.648 689.277 170.08C690.173 172.512 690.621 175.2 690.621 178.144V182.56ZM681.885 176.512C681.885 174.848 681.662 173.312 681.214 171.904C680.83 170.432 680.189 169.152 679.293 168.064C678.461 166.976 677.373 166.112 676.029 165.472C674.685 164.832 673.053 164.512 671.133 164.512C667.613 164.512 664.733 165.632 662.493 167.872C660.317 170.112 658.973 173.056 658.461 176.704L681.885 176.512Z" stroke="#5484E0" stroke-width="10" mask="url(#path-2-inside-1)"/>
    <path d="M630.48 204.16V136H638.737V204.16H630.48Z" stroke="#5484E0" stroke-width="10" mask="url(#path-2-inside-1)"/>
    <path d="M609.035 204.16V165.376H589.931V204.16H581.579V165.376H574.955V159.04H581.579V153.952C581.579 151.264 582.027 148.8 582.923 146.56C583.819 144.256 585.067 142.304 586.667 140.704C588.331 139.04 590.315 137.76 592.619 136.864C594.987 135.968 597.611 135.52 600.491 135.52C602.283 135.52 604.299 135.776 606.539 136.288C608.843 136.8 610.763 137.44 612.299 138.208L610.571 144.064C609.291 143.552 607.915 143.168 606.443 142.912C604.971 142.592 603.595 142.432 602.315 142.432C598.283 142.432 595.211 143.36 593.099 145.216C590.987 147.008 589.931 150.208 589.931 154.816V159.04H617.483V204.16H609.035Z" stroke="#5484E0" stroke-width="10" mask="url(#path-2-inside-1)"/>
    <path d="M569.379 181.12C569.379 184.896 568.803 188.288 567.651 191.296C566.499 194.24 564.899 196.736 562.851 198.784C560.867 200.832 558.531 202.4 555.843 203.488C553.155 204.512 550.243 205.024 547.107 205.024C543.971 205.024 541.059 204.544 538.371 203.584C535.747 202.56 533.443 201.088 531.459 199.168C529.539 197.184 528.003 194.784 526.851 191.968C525.763 189.088 525.219 185.792 525.219 182.08C525.219 178.304 525.795 174.944 526.947 172C528.099 169.056 529.667 166.592 531.651 164.608C533.699 162.56 536.067 161.024 538.755 160C541.443 158.912 544.355 158.368 547.491 158.368C550.627 158.368 553.507 158.848 556.131 159.808C558.819 160.768 561.123 162.208 563.043 164.128C565.027 166.048 566.563 168.448 567.651 171.328C568.803 174.144 569.379 177.408 569.379 181.12ZM560.547 181.6C560.547 178.592 560.163 176.032 559.395 173.92C558.627 171.808 557.603 170.08 556.323 168.736C555.107 167.392 553.699 166.432 552.099 165.856C550.499 165.216 548.867 164.896 547.203 164.896C545.539 164.896 543.907 165.152 542.307 165.664C540.707 166.176 539.299 167.072 538.083 168.352C536.867 169.632 535.875 171.36 535.107 173.536C534.403 175.648 534.051 178.336 534.051 181.6C534.051 184.608 534.435 187.2 535.203 189.376C535.971 191.488 536.963 193.216 538.179 194.56C539.459 195.904 540.899 196.896 542.499 197.536C544.099 198.176 545.731 198.496 547.395 198.496C549.059 198.496 550.691 198.24 552.291 197.728C553.891 197.152 555.299 196.224 556.515 194.944C557.731 193.6 558.691 191.872 559.395 189.76C560.163 187.584 560.547 184.864 560.547 181.6Z" stroke="#5484E0" stroke-width="10" mask="url(#path-2-inside-1)"/>
    <path d="M494.53 204.16V159.04H500.866L502.306 168.064C503.394 165.184 505.186 162.848 507.682 161.056C510.178 159.264 513.058 158.368 516.322 158.368C517.986 158.368 519.362 158.496 520.45 158.752C521.538 159.008 522.53 159.328 523.426 159.712L521.794 167.104C521.026 166.72 520.162 166.4 519.202 166.144C518.306 165.888 517.218 165.76 515.938 165.76C514.082 165.76 512.354 166.08 510.754 166.72C509.218 167.36 507.842 168.32 506.626 169.6C505.474 170.88 504.546 172.48 503.842 174.4C503.202 176.256 502.882 178.4 502.882 180.832V204.16H494.53Z" stroke="#5484E0" stroke-width="10" mask="url(#path-2-inside-1)"/>
    <path d="M462.441 205.024C460.393 205.024 458.41 204.736 456.49 204.16C454.634 203.584 453.034 202.816 451.69 201.856V226.24H443.338V158.368H450.346L451.594 164.224C453.322 162.624 455.274 161.248 457.45 160.096C459.626 158.944 462.186 158.368 465.13 158.368C471.146 158.368 475.882 160.288 479.338 164.128C482.794 167.968 484.522 173.472 484.522 180.64C484.522 184.864 483.882 188.512 482.602 191.584C481.386 194.656 479.722 197.184 477.61 199.168C475.562 201.152 473.194 202.624 470.506 203.584C467.882 204.544 465.193 205.024 462.441 205.024ZM463.306 165.28C460.618 165.28 458.282 165.952 456.298 167.296C454.314 168.576 452.778 169.888 451.69 171.232V195.328C453.162 196.416 454.73 197.216 456.394 197.728C458.058 198.24 459.721 198.496 461.385 198.496C463.113 198.496 464.842 198.208 466.57 197.632C468.298 196.992 469.834 195.968 471.178 194.56C472.522 193.152 473.609 191.328 474.441 189.088C475.273 186.848 475.69 184.096 475.69 180.832C475.69 176.032 474.666 172.256 472.618 169.504C470.634 166.688 467.53 165.28 463.306 165.28Z" stroke="#5484E0" stroke-width="10" mask="url(#path-2-inside-1)"/>
    <path d="M386.53 204.16V159.04H392.866L394.306 168.064C395.394 165.184 397.186 162.848 399.682 161.056C402.178 159.264 405.058 158.368 408.322 158.368C409.986 158.368 411.362 158.496 412.45 158.752C413.538 159.008 414.53 159.328 415.426 159.712L413.794 167.104C413.026 166.72 412.162 166.4 411.202 166.144C410.306 165.888 409.218 165.76 407.938 165.76C406.082 165.76 404.354 166.08 402.754 166.72C401.218 167.36 399.842 168.32 398.626 169.6C397.474 170.88 396.546 172.48 395.842 174.4C395.202 176.256 394.882 178.4 394.882 180.832V204.16H386.53Z" stroke="#5484E0" stroke-width="10" mask="url(#path-2-inside-1)"/>
    <path d="M376.747 182.56H344.395V182.944C344.395 187.936 345.739 191.776 348.427 194.464C351.179 197.152 354.891 198.496 359.562 198.496C361.995 198.496 364.139 198.304 365.995 197.92C367.915 197.536 369.995 196.896 372.235 196L373.963 202.24C372.107 203.072 369.899 203.744 367.339 204.256C364.843 204.768 362.155 205.024 359.275 205.024C356.011 205.024 352.939 204.576 350.059 203.68C347.243 202.784 344.747 201.408 342.571 199.552C340.395 197.632 338.667 195.2 337.387 192.256C336.171 189.312 335.562 185.792 335.562 181.696C335.562 178.176 336.075 174.976 337.099 172.096C338.187 169.216 339.691 166.784 341.611 164.8C343.531 162.752 345.835 161.184 348.523 160.096C351.275 158.944 354.347 158.368 357.739 158.368C360.619 158.368 363.211 158.848 365.515 159.808C367.883 160.768 369.899 162.112 371.563 163.84C373.227 165.568 374.507 167.648 375.403 170.08C376.299 172.512 376.747 175.2 376.747 178.144V182.56ZM368.01 176.512C368.01 174.848 367.787 173.312 367.339 171.904C366.955 170.432 366.315 169.152 365.419 168.064C364.587 166.976 363.499 166.112 362.155 165.472C360.811 164.832 359.179 164.512 357.259 164.512C353.739 164.512 350.858 165.632 348.618 167.872C346.442 170.112 345.099 173.056 344.587 176.704L368.01 176.512Z" stroke="#5484E0" stroke-width="10" mask="url(#path-2-inside-1)"/>
    <path d="M306.066 205.024C304.018 205.024 302.035 204.736 300.115 204.16C298.259 203.584 296.659 202.816 295.315 201.856V226.24H286.963V158.368H293.971L295.219 164.224C296.947 162.624 298.899 161.248 301.075 160.096C303.251 158.944 305.811 158.368 308.755 158.368C314.771 158.368 319.507 160.288 322.963 164.128C326.419 167.968 328.147 173.472 328.147 180.64C328.147 184.864 327.507 188.512 326.227 191.584C325.011 194.656 323.347 197.184 321.235 199.168C319.187 201.152 316.819 202.624 314.131 203.584C311.507 204.544 308.818 205.024 306.066 205.024ZM306.931 165.28C304.243 165.28 301.907 165.952 299.923 167.296C297.939 168.576 296.403 169.888 295.315 171.232V195.328C296.787 196.416 298.355 197.216 300.019 197.728C301.683 198.24 303.346 198.496 305.01 198.496C306.738 198.496 308.467 198.208 310.195 197.632C311.923 196.992 313.459 195.968 314.803 194.56C316.147 193.152 317.234 191.328 318.066 189.088C318.898 186.848 319.315 184.096 319.315 180.832C319.315 176.032 318.291 172.256 316.243 169.504C314.259 166.688 311.155 165.28 306.931 165.28Z" stroke="#5484E0" stroke-width="10" mask="url(#path-2-inside-1)"/>
    <path d="M277.066 181.12C277.066 184.896 276.49 188.288 275.338 191.296C274.186 194.24 272.586 196.736 270.538 198.784C268.554 200.832 266.218 202.4 263.53 203.488C260.842 204.512 257.93 205.024 254.794 205.024C251.658 205.024 248.746 204.544 246.058 203.584C243.434 202.56 241.13 201.088 239.146 199.168C237.226 197.184 235.69 194.784 234.538 191.968C233.45 189.088 232.906 185.792 232.906 182.08C232.906 178.304 233.482 174.944 234.634 172C235.786 169.056 237.354 166.592 239.338 164.608C241.386 162.56 243.754 161.024 246.442 160C249.13 158.912 252.042 158.368 255.178 158.368C258.314 158.368 261.194 158.848 263.818 159.808C266.506 160.768 268.81 162.208 270.73 164.128C272.714 166.048 274.25 168.448 275.338 171.328C276.49 174.144 277.066 177.408 277.066 181.12ZM268.234 181.6C268.234 178.592 267.85 176.032 267.082 173.92C266.314 171.808 265.29 170.08 264.01 168.736C262.794 167.392 261.386 166.432 259.786 165.856C258.186 165.216 256.554 164.896 254.89 164.896C253.226 164.896 251.594 165.152 249.994 165.664C248.394 166.176 246.986 167.072 245.77 168.352C244.554 169.632 243.562 171.36 242.794 173.536C242.09 175.648 241.738 178.336 241.738 181.6C241.738 184.608 242.122 187.2 242.89 189.376C243.658 191.488 244.65 193.216 245.866 194.56C247.146 195.904 248.586 196.896 250.186 197.536C251.786 198.176 253.418 198.496 255.082 198.496C256.746 198.496 258.378 198.24 259.978 197.728C261.578 197.152 262.986 196.224 264.202 194.944C265.418 193.6 266.378 191.872 267.082 189.76C267.85 187.584 268.234 184.864 268.234 181.6Z" stroke="#5484E0" stroke-width="10" mask="url(#path-2-inside-1)"/>
    <path d="M213.949 204.16V136H222.205V204.16H213.949Z" stroke="#5484E0" stroke-width="10" mask="url(#path-2-inside-1)"/>
    <path d="M203.59 182.56H171.238V182.944C171.238 187.936 172.582 191.776 175.27 194.464C178.022 197.152 181.734 198.496 186.406 198.496C188.838 198.496 190.982 198.304 192.838 197.92C194.758 197.536 196.838 196.896 199.078 196L200.806 202.24C198.95 203.072 196.742 203.744 194.182 204.256C191.686 204.768 188.998 205.024 186.118 205.024C182.854 205.024 179.782 204.576 176.902 203.68C174.086 202.784 171.59 201.408 169.414 199.552C167.238 197.632 165.51 195.2 164.23 192.256C163.014 189.312 162.406 185.792 162.406 181.696C162.406 178.176 162.918 174.976 163.942 172.096C165.03 169.216 166.534 166.784 168.454 164.8C170.374 162.752 172.678 161.184 175.366 160.096C178.118 158.944 181.19 158.368 184.582 158.368C187.462 158.368 190.054 158.848 192.358 159.808C194.726 160.768 196.742 162.112 198.406 163.84C200.07 165.568 201.35 167.648 202.246 170.08C203.142 172.512 203.59 175.2 203.59 178.144V182.56ZM194.854 176.512C194.854 174.848 194.63 173.312 194.182 171.904C193.798 170.432 193.158 169.152 192.262 168.064C191.43 166.976 190.342 166.112 188.998 165.472C187.654 164.832 186.022 164.512 184.102 164.512C180.582 164.512 177.702 165.632 175.462 167.872C173.286 170.112 171.942 173.056 171.43 176.704L194.854 176.512Z" stroke="#5484E0" stroke-width="10" mask="url(#path-2-inside-1)"/>
    <path d="M149.434 159.04H158.458L141.658 204.16H133.402L116.41 159.04H125.53L135.706 190.048L137.434 197.152H137.818L139.45 190.144L149.434 159.04Z" stroke="#5484E0" stroke-width="10" mask="url(#path-2-inside-1)"/>
    <path d="M112.653 182.56H80.3008V182.944C80.3008 187.936 81.6447 191.776 84.3327 194.464C87.0847 197.152 90.7968 198.496 95.4688 198.496C97.9008 198.496 100.045 198.304 101.901 197.92C103.821 197.536 105.901 196.896 108.141 196L109.869 202.24C108.013 203.072 105.805 203.744 103.245 204.256C100.749 204.768 98.0607 205.024 95.1807 205.024C91.9167 205.024 88.8447 204.576 85.9647 203.68C83.1487 202.784 80.6528 201.408 78.4767 199.552C76.3007 197.632 74.5728 195.2 73.2928 192.256C72.0768 189.312 71.4688 185.792 71.4688 181.696C71.4688 178.176 71.9807 174.976 73.0047 172.096C74.0927 169.216 75.5968 166.784 77.5168 164.8C79.4367 162.752 81.7407 161.184 84.4287 160.096C87.1807 158.944 90.2527 158.368 93.6447 158.368C96.5247 158.368 99.1167 158.848 101.421 159.808C103.789 160.768 105.805 162.112 107.469 163.84C109.133 165.568 110.413 167.648 111.309 170.08C112.205 172.512 112.653 175.2 112.653 178.144V182.56ZM103.917 176.512C103.917 174.848 103.693 173.312 103.245 171.904C102.861 170.432 102.221 169.152 101.325 168.064C100.493 166.976 99.4047 166.112 98.0607 165.472C96.7167 164.832 95.0847 164.512 93.1647 164.512C89.6447 164.512 86.7647 165.632 84.5247 167.872C82.3487 170.112 81.0047 173.056 80.4927 176.704L103.917 176.512Z" stroke="#5484E0" stroke-width="10" mask="url(#path-2-inside-1)"/>
    <path d="M52.736 136H61.184V204.16H54.08L53.024 199.168H52.736C50.752 201.216 48.736 202.72 46.688 203.68C44.704 204.576 42.176 205.024 39.104 205.024C36.672 205.024 34.304 204.544 32 203.584C29.76 202.624 27.744 201.184 25.952 199.264C24.16 197.344 22.72 194.944 21.632 192.064C20.544 189.12 20 185.664 20 181.696C20 178.176 20.448 174.976 21.344 172.096C22.304 169.216 23.648 166.752 25.376 164.704C27.104 162.656 29.216 161.088 31.712 160C34.208 158.912 37.056 158.368 40.256 158.368C42.624 158.368 44.864 158.752 46.976 159.52C49.152 160.224 51.072 161.312 52.736 162.784V136ZM52.736 169.888C49.728 166.496 46.176 164.8 42.08 164.8C40.352 164.8 38.656 165.12 36.992 165.76C35.392 166.336 33.952 167.296 32.672 168.64C31.456 169.984 30.464 171.712 29.696 173.824C28.928 175.936 28.544 178.464 28.544 181.408C28.544 184.48 28.896 187.104 29.6 189.28C30.304 191.392 31.232 193.152 32.384 194.56C33.6 195.904 34.944 196.896 36.416 197.536C37.952 198.176 39.488 198.496 41.024 198.496C45.824 198.496 49.728 196.416 52.736 192.256V169.888Z" stroke="#5484E0" stroke-width="10" mask="url(#path-2-inside-1)"/>
    <path d="M658.44 67.488C656.328 66.464 654.408 65.76 652.68 65.376C650.952 64.992 649.224 64.8 647.496 64.8C644.424 64.8 642.152 65.376 640.68 66.528C639.208 67.616 638.472 69.088 638.472 70.944C638.472 72.288 638.984 73.472 640.008 74.496C641.032 75.456 643.176 76.416 646.44 77.376L649.32 78.24C653.608 79.52 656.84 81.184 659.016 83.232C661.256 85.216 662.376 87.936 662.376 91.392C662.376 95.488 660.84 98.784 657.768 101.28C654.76 103.776 650.536 105.024 645.096 105.024C642.216 105.024 639.433 104.768 636.745 104.256C634.121 103.744 631.848 103.04 629.928 102.144L631.944 95.52C633.8 96.416 635.816 97.152 637.992 97.728C640.168 98.24 642.376 98.496 644.616 98.496C647.496 98.496 649.768 97.984 651.432 96.96C653.16 95.936 654.024 94.24 654.024 91.872C654.024 89.824 653.288 88.384 651.816 87.552C650.344 86.656 648.232 85.792 645.48 84.96L642.504 84C638.344 82.656 635.241 80.992 633.193 79.008C631.209 76.96 630.216 74.336 630.216 71.136C630.216 69.216 630.632 67.456 631.464 65.856C632.296 64.256 633.416 62.912 634.824 61.824C636.296 60.736 638.024 59.904 640.008 59.328C641.992 58.688 644.168 58.368 646.536 58.368C648.776 58.368 651.08 58.592 653.448 59.04C655.88 59.424 658.184 60.096 660.36 61.056L658.44 67.488Z" stroke="#5484E0" stroke-width="10" mask="url(#path-2-inside-1)"/>
    <path d="M615.621 42.24H623.589L622.053 63.072H617.061L615.621 42.24Z" stroke="#5484E0" stroke-width="10" mask="url(#path-2-inside-1)"/>
    <path d="M600.559 59.04H609.583L592.783 104.16H584.527L567.535 59.04H576.655L586.831 90.048L588.559 97.152H588.943L590.575 90.144L600.559 59.04Z" stroke="#5484E0" stroke-width="10" mask="url(#path-2-inside-1)"/>
    <path d="M563.472 1.12C563.472 84.896 562.897 88.288 561.745 91.296C560.593 94.24 558.992 96.736 556.944 98.784C554.96 100.832 552.624 102.4 549.936 103.488C547.248 104.512 544.337 105.024 541.201 105.024C538.064 105.024 535.152 104.544 532.464 103.584C529.84 102.56 527.537 101.088 525.553 99.168C523.633 97.184 522.097 94.784 520.945 91.968C519.857 89.088 519.312 85.792 519.312 82.08C519.312 78.304 519.889 74.944 521.041 72C522.193 69.056 523.761 66.592 525.745 64.608C527.793 62.56 530.161 61.024 532.849 60C535.537 58.912 538.448 58.368 541.584 58.368C544.72 58.368 547.6 58.848 550.224 59.808C552.912 60.768 555.216 62.208 557.136 64.128C559.12 66.048 560.657 68.448 561.745 71.328C562.897 74.144 563.472 77.408 563.472 81.12ZM554.641 81.6C554.641 78.592 554.256 76.032 553.488 73.92C552.72 71.808 551.697 70.08 550.417 68.736C549.201 67.392 547.793 66.432 546.193 65.856C544.593 65.216 542.961 64.896 541.297 64.896C539.633 64.896 538.001 65.152 536.401 65.664C534.801 66.176 533.392 67.072 532.176 68.352C530.96 69.632 529.969 71.36 529.201 73.536C528.497 75.648 528.145 78.336 528.145 81.6C528.145 84.608 528.529 87.2 529.297 89.376C530.065 91.488 531.056 93.216 532.272 94.56C533.552 95.904 534.992 96.896 536.592 97.536C538.192 98.176 539.824 98.496 541.488 98.496C543.152 98.496 544.784 98.24 546.384 97.728C547.984 97.152 549.392 96.224 550.608 94.944C551.824 93.6 552.784 91.872 553.488 89.76C554.256 87.584 554.641 84.864 554.641 81.6Z" stroke="#5484E0" stroke-width="10" mask="url(#path-2-inside-1)"/>
    <path d="M479.263 104.16H470.815V59.04H477.439L478.687 65.28C480.927 63.04 483.263 61.344 485.695 60.192C488.191 58.976 491.039 58.368 494.239 58.368C498.847 58.368 502.463 59.68 505.087 62.304C507.711 64.864 509.023 68.448 509.023 73.056V104.16H500.575V74.304C500.575 71.552 499.839 69.376 498.367 67.776C496.959 66.112 494.783 65.28 491.839 65.28C487.359 65.28 483.167 67.296 479.263 71.328V104.16Z" stroke="#5484E0" stroke-width="10" mask="url(#path-2-inside-1)"/>
    <path d="M449.305 59.04H457.753V104.16H451.129L449.977 98.496H449.593C447.929 100.352 445.849 101.92 443.353 103.2C440.921 104.416 438.073 105.024 434.809 105.024C430.137 105.024 426.329 103.712 423.385 101.088C420.505 98.4 419.065 94.368 419.065 88.992V59.04H427.513V87.936C427.513 89.856 427.737 91.488 428.185 92.832C428.697 94.176 429.337 95.264 430.105 96.096C430.937 96.864 431.897 97.44 432.985 97.824C434.073 98.144 435.257 98.304 436.537 98.304C439.097 98.304 441.401 97.76 443.449 96.672C445.497 95.584 447.449 94.08 449.305 92.16V59.04Z" stroke="#5484E0" stroke-width="10" mask="url(#path-2-inside-1)"/>
    <path d="M366.456 74.016C366.456 71.52 366.904 69.312 367.8 67.392C368.696 65.408 369.944 63.744 371.544 62.4C373.208 61.056 375.16 60.064 377.4 59.424C379.64 58.72 382.072 58.368 384.696 58.368C385.656 58.368 386.584 58.432 387.48 58.56C388.376 58.688 389.272 58.848 390.168 59.04H409.656V65.28H406.68L399 64.224C400.216 65.504 401.144 66.976 401.784 68.64C402.488 70.304 402.84 72.064 402.84 73.92C402.84 76.416 402.392 78.656 401.496 80.64C400.6 82.56 399.352 84.192 397.752 85.536C396.152 86.88 394.232 87.904 391.992 88.608C389.752 89.248 387.32 89.568 384.696 89.568C382.712 89.568 380.984 89.44 379.512 89.184C378.04 89.696 377.016 90.368 376.44 91.2C375.864 91.968 375.576 92.8 375.576 93.696C375.576 95.168 376.056 96.16 377.016 96.672C378.04 97.184 379.384 97.44 381.048 97.44H392.952C397.944 97.44 401.752 98.592 404.376 100.896C407.064 103.136 408.408 106.208 408.408 110.112C408.408 112.608 407.864 114.848 406.776 116.832C405.688 118.816 404.12 120.512 402.072 121.92C400.088 123.328 397.656 124.384 394.776 125.088C391.896 125.856 388.664 126.24 385.08 126.24C378.552 126.24 373.336 125.056 369.432 122.688C365.592 120.384 363.672 116.96 363.672 112.416C363.672 110.048 364.408 108.064 365.88 106.464C367.416 104.864 369.4 103.648 371.832 102.816C370.552 101.92 369.592 100.992 368.952 100.032C368.312 99.008 367.992 97.664 367.992 96C367.992 94.016 368.568 92.32 369.72 90.912C370.936 89.504 372.568 88.384 374.616 87.552C372.056 86.4 370.04 84.736 368.568 82.56C367.16 80.32 366.456 77.472 366.456 74.016ZM376.728 104.16C373.464 105.632 371.832 107.936 371.832 111.072C371.832 116.704 376.376 119.52 385.464 119.52C388.152 119.52 390.424 119.264 392.28 118.752C394.136 118.24 395.64 117.568 396.792 116.736C397.944 115.904 398.776 114.976 399.288 113.952C399.864 112.928 400.152 111.872 400.152 110.784C400.152 108.096 399.224 106.304 397.368 105.408C395.576 104.576 393.304 104.16 390.552 104.16H376.728ZM394.296 74.208C394.296 70.816 393.4 68.32 391.608 66.72C389.88 65.12 387.576 64.32 384.696 64.32C381.816 64.32 379.48 65.12 377.688 66.72C375.96 68.32 375.096 70.688 375.096 73.824C375.096 77.152 375.96 79.616 377.688 81.216C379.48 82.752 381.816 83.52 384.696 83.52C387.576 83.52 389.88 82.752 391.608 81.216C393.4 79.68 394.296 77.344 394.296 74.208Z" stroke="#5484E0" stroke-width="10" mask="url(#path-2-inside-1)"/>
    <path d="M346.555 59.04H355.003V104.16H348.379L347.227 98.496H346.843C345.179 100.352 343.099 101.92 340.603 103.2C338.171 104.416 335.323 105.024 332.059 105.024C327.387 105.024 323.579 103.712 320.635 101.088C317.755 98.4 316.315 94.368 316.315 88.992V59.04H324.763V87.936C324.763 89.856 324.987 91.488 325.435 92.832C325.947 94.176 326.587 95.264 327.355 96.096C328.187 96.864 329.147 97.44 330.235 97.824C331.323 98.144 332.507 98.304 333.787 98.304C336.347 98.304 338.651 97.76 340.699 96.672C342.747 95.584 344.699 94.08 346.555 92.16V59.04Z" stroke="#5484E0" stroke-width="10" mask="url(#path-2-inside-1)"/>
    <path d="M273.015 104.16H264.567V36H273.015V64.8C275.127 62.944 277.463 61.408 280.023 60.192C282.583 58.976 285.4 58.368 288.472 58.368C290.968 58.368 293.144 58.752 295 59.52C296.856 60.224 298.36 61.248 299.512 62.592C300.728 63.872 301.624 65.408 302.2 67.2C302.84 68.992 303.16 70.944 303.16 73.056V104.16H294.712V75.168C294.712 71.712 294.008 69.216 292.6 67.68C291.192 66.08 289.048 65.28 286.168 65.28C283.992 65.28 281.784 65.824 279.544 66.912C277.368 68 275.191 69.536 273.015 71.52V104.16Z" stroke="#5484E0" stroke-width="10" mask="url(#path-2-inside-1)"/>
    <path d="M237.461 97.728C240.661 97.728 243.285 97.472 245.333 96.96C247.445 96.448 249.525 95.712 251.573 94.752L253.589 101.856C251.349 102.944 248.885 103.744 246.197 104.256C243.573 104.768 240.341 105.024 236.501 105.024C232.533 105.024 228.789 104.352 225.269 103.008C221.749 101.664 218.677 99.68 216.053 97.056C213.493 94.432 211.445 91.2 209.909 87.36C208.437 83.456 207.701 78.976 207.701 73.92C207.701 68.992 208.437 64.608 209.909 60.768C211.381 56.864 213.397 53.6 215.957 50.976C218.581 48.288 221.685 46.272 225.269 44.928C228.853 43.52 232.757 42.816 236.981 42.816C240.949 42.816 244.213 43.136 246.773 43.776C249.333 44.416 251.701 45.28 253.877 46.368L251.765 53.28C250.549 52.768 249.397 52.32 248.309 51.936C247.285 51.488 246.229 51.136 245.141 50.88C244.117 50.624 243.029 50.432 241.877 50.304C240.789 50.176 239.541 50.112 238.133 50.112C235.317 50.112 232.629 50.56 230.069 51.456C227.573 52.288 225.365 53.664 223.445 55.584C221.589 57.504 220.085 60 218.933 63.072C217.845 66.08 217.301 69.728 217.301 74.016C217.301 78.368 217.845 82.048 218.933 85.056C220.021 88.064 221.461 90.496 223.253 92.352C225.109 94.208 227.253 95.584 229.685 96.48C232.117 97.312 234.709 97.728 237.461 97.728Z" stroke="#5484E0" stroke-width="10" mask="url(#path-2-inside-1)"/>
    <path d="M145.794 104.16H137.346V59.04H143.97L145.218 65.28C147.458 63.04 149.795 61.344 152.227 60.192C154.723 58.976 157.57 58.368 160.77 58.368C165.378 58.368 168.994 59.68 171.618 62.304C174.243 64.864 175.555 68.448 175.555 73.056V104.16H167.106V74.304C167.106 71.552 166.37 69.376 164.898 67.776C163.49 66.112 161.314 65.28 158.37 65.28C153.89 65.28 149.698 67.296 145.794 71.328V104.16Z" stroke="#5484E0" stroke-width="10" mask="url(#path-2-inside-1)"/>
    <path d="M90.8577 63.072C92.3937 62.304 93.8337 61.632 95.1777 61.056C96.5217 60.416 97.8657 59.904 99.2097 59.52C100.554 59.136 101.93 58.848 103.338 58.656C104.746 58.464 106.282 58.368 107.946 58.368C110.442 58.368 112.714 58.656 114.762 59.232C116.874 59.744 118.666 60.64 120.138 61.92C121.674 63.2 122.858 64.896 123.69 67.008C124.522 69.056 124.938 71.648 124.938 74.784V104.16H117.93L116.874 99.168H116.682C114.698 101.28 112.522 102.784 110.154 103.68C107.786 104.576 105.162 105.024 102.282 105.024C100.106 105.024 98.0897 104.736 96.2337 104.16C94.4417 103.52 92.8737 102.656 91.5297 101.568C90.1857 100.416 89.1297 99.04 88.3617 97.44C87.6577 95.84 87.3057 94.048 87.3057 92.064C87.3057 87.328 89.1617 83.744 92.8737 81.312C96.6497 78.816 101.61 77.568 107.754 77.568H116.394V73.728C116.394 70.464 115.562 68.256 113.898 67.104C112.234 65.888 109.994 65.28 107.178 65.28C105.514 65.28 103.594 65.568 101.418 66.144C99.3057 66.656 96.8737 67.68 94.1217 69.216L90.8577 63.072ZM116.49 83.328L109.386 83.52C104.586 83.648 101.162 84.512 99.1137 86.112C97.1297 87.648 96.1377 89.536 96.1377 91.776C96.1377 93.12 96.3617 94.272 96.8097 95.232C97.2577 96.128 97.8337 96.832 98.5378 97.344C99.3057 97.856 100.17 98.24 101.13 98.496C102.154 98.688 103.21 98.784 104.298 98.784C106.41 98.784 108.554 98.304 110.73 97.344C112.906 96.32 114.826 94.72 116.49 92.544V83.328Z" stroke="#5484E0" stroke-width="10" mask="url(#path-2-inside-1)"/>
    <path d="M74.6218 59.04H83.6458L66.8458 104.16H58.5898L41.5977 59.04H50.7178L60.8938 90.048L62.6217 97.152H63.0058L64.6378 90.144L74.6218 59.04Z" stroke="#5484E0" stroke-width="10" mask="url(#path-2-inside-1)"/>
    <path d="M32.768 43.68V104.16H23.936V43.68H32.768Z" stroke="#5484E0" stroke-width="10" mask="url(#path-2-inside-1)"/>
</svg>
